<svg width="182" height="108" viewBox="0 0 182 108" fill="none" xmlns="http://www.w3.org/2000/svg">
<path d="M21.05 48.5C17.4833 48.5 14.2667 47.7333 11.4 46.2C8.53333 44.6333 6.28333 42.4833 4.65 39.75C3.01667 36.9833 2.2 33.9 2.2 30.5C2.2 27.1 3.01667 24.0333 4.65 21.3C6.28333 18.5333 8.53333 16.3833 11.4 14.85C14.2667 13.2833 17.4833 12.5 21.05 12.5C24.6167 12.5 27.8333 13.2833 30.7 14.85C33.5667 16.3833 35.8167 18.5167 37.45 21.25C39.0833 23.9833 39.9 27.0667 39.9 30.5C39.9 33.9333 39.0833 37.0167 37.45 39.75C35.8167 42.4833 33.5667 44.6333 30.7 46.2C27.8333 47.7333 24.6167 48.5 21.05 48.5ZM21.05 42.8C23.3833 42.8 25.4833 42.2833 27.35 41.25C29.2167 40.1833 30.6833 38.7167 31.75 36.85C32.8167 34.95 33.35 32.8333 33.35 30.5C33.35 28.1667 32.8167 26.0667 31.75 24.2C30.6833 22.3 29.2167 20.8333 27.35 19.8C25.4833 18.7333 23.3833 18.2 21.05 18.2C18.7167 18.2 16.6167 18.7333 14.75 19.8C12.8833 20.8333 11.4167 22.3 10.35 24.2C9.28333 26.0667 8.75 28.1667 8.75 30.5C8.75 32.8333 9.28333 34.95 10.35 36.85C11.4167 38.7167 12.8833 40.1833 14.75 41.25C16.6167 42.2833 18.7167 42.8 21.05 42.8ZM58.1898 48.35C55.4898 48.35 53.0565 47.7667 50.8898 46.6C48.7232 45.4333 47.0232 43.8167 45.7898 41.75C44.5898 39.65 43.9898 37.2833 43.9898 34.65C43.9898 32.0167 44.5898 29.6667 45.7898 27.6C47.0232 25.5333 48.7232 23.9167 50.8898 22.75C53.0565 21.5833 55.4898 21 58.1898 21C60.9232 21 63.3732 21.5833 65.5398 22.75C67.7065 23.9167 69.3898 25.5333 70.5898 27.6C71.8232 29.6667 72.4398 32.0167 72.4398 34.65C72.4398 37.2833 71.8232 39.65 70.5898 41.75C69.3898 43.8167 67.7065 45.4333 65.5398 46.6C63.3732 47.7667 60.9232 48.35 58.1898 48.35ZM58.1898 43C60.4898 43 62.3898 42.2333 63.8898 40.7C65.3898 39.1667 66.1398 37.15 66.1398 34.65C66.1398 32.15 65.3898 30.1333 63.8898 28.6C62.3898 27.0667 60.4898 26.3 58.1898 26.3C55.8898 26.3 53.9898 27.0667 52.4898 28.6C51.0232 30.1333 50.2898 32.15 50.2898 34.65C50.2898 37.15 51.0232 39.1667 52.4898 40.7C53.9898 42.2333 55.8898 43 58.1898 43ZM90.4164 48.35C87.7164 48.35 85.2831 47.7667 83.1164 46.6C80.9497 45.4333 79.2497 43.8167 78.0164 41.75C76.8164 39.65 76.2164 37.2833 76.2164 34.65C76.2164 32.0167 76.8164 29.6667 78.0164 27.6C79.2497 25.5333 80.9497 23.9167 83.1164 22.75C85.2831 21.5833 87.7164 21 90.4164 21C93.1497 21 95.5997 21.5833 97.7664 22.75C99.9331 23.9167 101.616 25.5333 102.816 27.6C104.05 29.6667 104.666 32.0167 104.666 34.65C104.666 37.2833 104.05 39.65 102.816 41.75C101.616 43.8167 99.9331 45.4333 97.7664 46.6C95.5997 47.7667 93.1497 48.35 90.4164 48.35ZM90.4164 43C92.7164 43 94.6164 42.2333 96.1164 40.7C97.6164 39.1667 98.3664 37.15 98.3664 34.65C98.3664 32.15 97.6164 30.1333 96.1164 28.6C94.6164 27.0667 92.7164 26.3 90.4164 26.3C88.1164 26.3 86.2164 27.0667 84.7164 28.6C83.2497 30.1333 82.5164 32.15 82.5164 34.65C82.5164 37.15 83.2497 39.1667 84.7164 40.7C86.2164 42.2333 88.1164 43 90.4164 43ZM125.443 21C128.043 21 130.36 21.5667 132.393 22.7C134.46 23.8333 136.076 25.4333 137.243 27.5C138.41 29.5667 138.993 31.95 138.993 34.65C138.993 37.35 138.41 39.75 137.243 41.85C136.076 43.9167 134.46 45.5167 132.393 46.65C130.36 47.7833 128.043 48.35 125.443 48.35C121.843 48.35 118.993 47.15 116.893 44.75V57.7H110.643V21.3H116.593V24.8C117.626 23.5333 118.893 22.5833 120.393 21.95C121.926 21.3167 123.61 21 125.443 21ZM124.743 43C127.043 43 128.926 42.2333 130.393 40.7C131.893 39.1667 132.643 37.15 132.643 34.65C132.643 32.15 131.893 30.1333 130.393 28.6C128.926 27.0667 127.043 26.3 124.743 26.3C123.243 26.3 121.893 26.65 120.693 27.35C119.493 28.0167 118.543 28.9833 117.843 30.25C117.143 31.5167 116.793 32.9833 116.793 34.65C116.793 36.3167 117.143 37.7833 117.843 39.05C118.543 40.3167 119.493 41.3 120.693 42C121.893 42.6667 123.243 43 124.743 43ZM153.17 48.35C151.004 48.35 148.887 48.0667 146.82 47.5C144.754 46.9333 143.104 46.2167 141.87 45.35L144.27 40.6C145.47 41.4 146.904 42.05 148.57 42.55C150.27 43.0167 151.937 43.25 153.57 43.25C157.304 43.25 159.17 42.2667 159.17 40.3C159.17 39.3667 158.687 38.7167 157.72 38.35C156.787 37.9833 155.27 37.6333 153.17 37.3C150.97 36.9667 149.17 36.5833 147.77 36.15C146.404 35.7167 145.204 34.9667 144.17 33.9C143.17 32.8 142.67 31.2833 142.67 29.35C142.67 26.8167 143.72 24.8 145.82 23.3C147.954 21.7667 150.82 21 154.42 21C156.254 21 158.087 21.2167 159.92 21.65C161.754 22.05 163.254 22.6 164.42 23.3L162.02 28.05C159.754 26.7167 157.204 26.05 154.37 26.05C152.537 26.05 151.137 26.3333 150.17 26.9C149.237 27.4333 148.77 28.15 148.77 29.05C148.77 30.05 149.27 30.7667 150.27 31.2C151.304 31.6 152.887 31.9833 155.02 32.35C157.154 32.6833 158.904 33.0667 160.27 33.5C161.637 33.9333 162.804 34.6667 163.77 35.7C164.77 36.7333 165.27 38.2 165.27 40.1C165.27 42.6 164.187 44.6 162.02 46.1C159.854 47.6 156.904 48.35 153.17 48.35ZM169.853 13H177.253L176.003 36.4H171.053L169.853 13ZM173.553 48.35C172.386 48.35 171.419 47.9833 170.653 47.25C169.886 46.4833 169.503 45.55 169.503 44.45C169.503 43.35 169.886 42.4333 170.653 41.7C171.419 40.9667 172.386 40.6 173.553 40.6C174.686 40.6 175.619 40.9667 176.353 41.7C177.119 42.4333 177.503 43.35 177.503 44.45C177.503 45.55 177.119 46.4833 176.353 47.25C175.619 47.9833 174.686 48.35 173.553 48.35Z" fill="black"/>
<path d="M4.944 96.128C4.10133 96.128 3.28533 96 2.496 95.744C1.71733 95.4773 1.104 95.136 0.656 94.72L1.248 93.472C1.67467 93.856 2.21867 94.1707 2.88 94.416C3.552 94.6507 4.24 94.768 4.944 94.768C5.872 94.768 6.56533 94.6133 7.024 94.304C7.48267 93.984 7.712 93.5627 7.712 93.04C7.712 92.656 7.584 92.3467 7.328 92.112C7.08267 91.8667 6.77333 91.68 6.4 91.552C6.03733 91.424 5.52 91.28 4.848 91.12C4.00533 90.9173 3.32267 90.7147 2.8 90.512C2.288 90.3093 1.84533 90 1.472 89.584C1.10933 89.1573 0.928 88.5867 0.928 87.872C0.928 87.2747 1.08267 86.736 1.392 86.256C1.712 85.776 2.192 85.392 2.832 85.104C3.472 84.816 4.26667 84.672 5.216 84.672C5.87733 84.672 6.528 84.7573 7.168 84.928C7.808 85.0987 8.35733 85.344 8.816 85.664L8.288 86.944C7.81867 86.6453 7.31733 86.4213 6.784 86.272C6.25067 86.112 5.728 86.032 5.216 86.032C4.30933 86.032 3.62667 86.1973 3.168 86.528C2.72 86.8587 2.496 87.2853 2.496 87.808C2.496 88.192 2.624 88.5067 2.88 88.752C3.136 88.9867 3.45067 89.1733 3.824 89.312C4.208 89.44 4.72533 89.5787 5.376 89.728C6.21867 89.9307 6.896 90.1333 7.408 90.336C7.92 90.5387 8.35733 90.848 8.72 91.264C9.09333 91.68 9.28 92.24 9.28 92.944C9.28 93.5307 9.12 94.0693 8.8 94.56C8.48 95.04 7.99467 95.424 7.344 95.712C6.69333 95.9893 5.89333 96.128 4.944 96.128ZM15.0255 96.096C14.1828 96.096 13.4255 95.9093 12.7535 95.536C12.0815 95.1627 11.5535 94.6507 11.1695 94C10.7962 93.3387 10.6095 92.592 10.6095 91.76C10.6095 90.928 10.7962 90.1867 11.1695 89.536C11.5535 88.8747 12.0815 88.3627 12.7535 88C13.4255 87.6267 14.1828 87.44 15.0255 87.44C15.8682 87.44 16.6202 87.6267 17.2815 88C17.9535 88.3627 18.4762 88.8747 18.8495 89.536C19.2335 90.1867 19.4255 90.928 19.4255 91.76C19.4255 92.592 19.2335 93.3387 18.8495 94C18.4762 94.6507 17.9535 95.1627 17.2815 95.536C16.6202 95.9093 15.8682 96.096 15.0255 96.096ZM15.0255 94.752C15.5695 94.752 16.0548 94.6293 16.4815 94.384C16.9188 94.128 17.2602 93.776 17.5055 93.328C17.7508 92.8693 17.8735 92.3467 17.8735 91.76C17.8735 91.1733 17.7508 90.656 17.5055 90.208C17.2602 89.7493 16.9188 89.3973 16.4815 89.152C16.0548 88.9067 15.5695 88.784 15.0255 88.784C14.4815 88.784 13.9908 88.9067 13.5535 89.152C13.1268 89.3973 12.7855 89.7493 12.5295 90.208C12.2842 90.656 12.1615 91.1733 12.1615 91.76C12.1615 92.3467 12.2842 92.8693 12.5295 93.328C12.7855 93.776 13.1268 94.128 13.5535 94.384C13.9908 94.6293 14.4815 94.752 15.0255 94.752ZM23.0218 88.944C23.2884 88.4533 23.6831 88.08 24.2057 87.824C24.7284 87.568 25.3631 87.44 26.1098 87.44V88.928C26.0244 88.9173 25.9071 88.912 25.7578 88.912C24.9258 88.912 24.2698 89.1627 23.7898 89.664C23.3204 90.1547 23.0858 90.8587 23.0858 91.776V96H21.5498V87.52H23.0218V88.944ZM29.4749 88.944C29.7415 88.4533 30.1362 88.08 30.6589 87.824C31.1815 87.568 31.8162 87.44 32.5629 87.44V88.928C32.4775 88.9173 32.3602 88.912 32.2109 88.912C31.3789 88.912 30.7229 89.1627 30.2429 89.664C29.7735 90.1547 29.5389 90.8587 29.5389 91.776V96H28.0029V87.52H29.4749V88.944ZM42.3038 87.52L38.1918 96.848C37.8291 97.712 37.4024 98.32 36.9118 98.672C36.4318 99.024 35.8504 99.2 35.1678 99.2C34.7518 99.2 34.3464 99.1307 33.9518 98.992C33.5678 98.864 33.2477 98.672 32.9917 98.416L33.6478 97.264C34.0851 97.68 34.5918 97.888 35.1678 97.888C35.5411 97.888 35.8504 97.7867 36.0958 97.584C36.3518 97.392 36.5811 97.056 36.7838 96.576L37.0558 95.984L33.3117 87.52H34.9118L37.8718 94.304L40.7998 87.52H42.3038ZM43.5293 84.8H45.3373L45.0333 92.464H43.8173L43.5293 84.8ZM44.4413 96.096C44.1426 96.096 43.8919 96 43.6893 95.808C43.4866 95.6053 43.3853 95.36 43.3853 95.072C43.3853 94.784 43.4866 94.544 43.6893 94.352C43.8919 94.1493 44.1426 94.048 44.4413 94.048C44.7399 94.048 44.9853 94.1493 45.1773 94.352C45.3693 94.544 45.4653 94.784 45.4653 95.072C45.4653 95.36 45.3639 95.6053 45.1613 95.808C44.9693 96 44.7293 96.096 44.4413 96.096ZM56.9074 84.8C58.358 84.8 59.4994 85.1467 60.3314 85.84C61.1634 86.5333 61.5794 87.488 61.5794 88.704C61.5794 89.92 61.1634 90.8747 60.3314 91.568C59.4994 92.2613 58.358 92.608 56.9074 92.608H54.1394V96H52.5394V84.8H56.9074ZM56.8594 91.216C57.8727 91.216 58.646 91.0027 59.1794 90.576C59.7127 90.1387 59.9794 89.5147 59.9794 88.704C59.9794 87.8933 59.7127 87.2747 59.1794 86.848C58.646 86.4107 57.8727 86.192 56.8594 86.192H54.1394V91.216H56.8594ZM66.7159 87.44C67.8892 87.44 68.7852 87.728 69.4039 88.304C70.0332 88.88 70.3479 89.7387 70.3479 90.88V96H68.8919V94.88C68.6359 95.2747 68.2679 95.5787 67.7879 95.792C67.3185 95.9947 66.7585 96.096 66.1079 96.096C65.1585 96.096 64.3959 95.8667 63.8199 95.408C63.2545 94.9493 62.9719 94.3467 62.9719 93.6C62.9719 92.8533 63.2439 92.256 63.7879 91.808C64.3319 91.3493 65.1959 91.12 66.3799 91.12H68.8119V90.816C68.8119 90.1547 68.6199 89.648 68.2359 89.296C67.8519 88.944 67.2865 88.768 66.5399 88.768C66.0385 88.768 65.5479 88.8533 65.0679 89.024C64.5879 89.184 64.1825 89.4027 63.8519 89.68L63.2119 88.528C63.6492 88.176 64.1719 87.9093 64.7799 87.728C65.3879 87.536 66.0332 87.44 66.7159 87.44ZM66.3639 94.912C66.9505 94.912 67.4572 94.784 67.8839 94.528C68.3105 94.2613 68.6199 93.888 68.8119 93.408V92.224H66.4439C65.1425 92.224 64.4919 92.6613 64.4919 93.536C64.4919 93.9627 64.6572 94.2987 64.9879 94.544C65.3185 94.7893 65.7772 94.912 66.3639 94.912ZM81.3493 87.52V94.848C81.3493 96.3307 80.9813 97.424 80.2453 98.128C79.5093 98.8427 78.4106 99.2 76.9493 99.2C76.1493 99.2 75.3866 99.088 74.6613 98.864C73.9359 98.6507 73.3493 98.3413 72.9013 97.936L73.6373 96.752C74.0319 97.0933 74.5173 97.36 75.0933 97.552C75.6799 97.7547 76.2826 97.856 76.9013 97.856C77.8933 97.856 78.6239 97.6213 79.0933 97.152C79.5733 96.6827 79.8133 95.968 79.8133 95.008V94.336C79.4506 94.7733 79.0026 95.104 78.4693 95.328C77.9466 95.5413 77.3759 95.648 76.7573 95.648C75.9466 95.648 75.2106 95.4773 74.5493 95.136C73.8986 94.784 73.3866 94.2987 73.0133 93.68C72.6399 93.0507 72.4533 92.336 72.4533 91.536C72.4533 90.736 72.6399 90.0267 73.0133 89.408C73.3866 88.7787 73.8986 88.2933 74.5493 87.952C75.2106 87.6107 75.9466 87.44 76.7573 87.44C77.3973 87.44 77.9893 87.5573 78.5333 87.792C79.0879 88.0267 79.5413 88.3733 79.8933 88.832V87.52H81.3493ZM76.9333 94.304C77.4879 94.304 77.9839 94.1867 78.4213 93.952C78.8693 93.7173 79.2159 93.392 79.4613 92.976C79.7173 92.5493 79.8453 92.0693 79.8453 91.536C79.8453 90.7147 79.5733 90.0533 79.0293 89.552C78.4853 89.04 77.7866 88.784 76.9333 88.784C76.0693 88.784 75.3653 89.04 74.8213 89.552C74.2773 90.0533 74.0053 90.7147 74.0053 91.536C74.0053 92.0693 74.1279 92.5493 74.3733 92.976C74.6293 93.392 74.9759 93.7173 75.4133 93.952C75.8613 94.1867 76.3679 94.304 76.9333 94.304ZM91.9481 91.808C91.9481 91.9253 91.9375 92.08 91.9161 92.272H85.0361C85.1321 93.0187 85.4575 93.6213 86.0121 94.08C86.5775 94.528 87.2761 94.752 88.1081 94.752C89.1215 94.752 89.9375 94.4107 90.5561 93.728L91.4041 94.72C91.0201 95.168 90.5401 95.5093 89.9641 95.744C89.3988 95.9787 88.7641 96.096 88.0601 96.096C87.1641 96.096 86.3695 95.9147 85.6761 95.552C84.9828 95.1787 84.4441 94.6613 84.0601 94C83.6868 93.3387 83.5001 92.592 83.5001 91.76C83.5001 90.9387 83.6815 90.1973 84.0441 89.536C84.4175 88.8747 84.9241 88.3627 85.5641 88C86.2148 87.6267 86.9455 87.44 87.7561 87.44C88.5668 87.44 89.2868 87.6267 89.9161 88C90.5561 88.3627 91.0521 88.8747 91.4041 89.536C91.7668 90.1973 91.9481 90.9547 91.9481 91.808ZM87.7561 88.736C87.0201 88.736 86.4015 88.96 85.9001 89.408C85.4095 89.856 85.1215 90.4427 85.0361 91.168H90.4761C90.3908 90.4533 90.0975 89.872 89.5961 89.424C89.1055 88.9653 88.4921 88.736 87.7561 88.736ZM102.906 87.44C103.983 87.44 104.837 87.7547 105.466 88.384C106.106 89.0027 106.426 89.9147 106.426 91.12V96H104.89V91.296C104.89 90.4747 104.693 89.856 104.298 89.44C103.903 89.024 103.338 88.816 102.602 88.816C101.77 88.816 101.114 89.0613 100.634 89.552C100.154 90.032 99.9139 90.7253 99.9139 91.632V96H98.3779V87.52H99.8499V88.8C100.159 88.3627 100.575 88.0267 101.098 87.792C101.631 87.5573 102.234 87.44 102.906 87.44ZM112.947 96.096C112.105 96.096 111.347 95.9093 110.675 95.536C110.003 95.1627 109.475 94.6507 109.091 94C108.718 93.3387 108.531 92.592 108.531 91.76C108.531 90.928 108.718 90.1867 109.091 89.536C109.475 88.8747 110.003 88.3627 110.675 88C111.347 87.6267 112.105 87.44 112.947 87.44C113.79 87.44 114.542 87.6267 115.203 88C115.875 88.3627 116.398 88.8747 116.771 89.536C117.155 90.1867 117.347 90.928 117.347 91.76C117.347 92.592 117.155 93.3387 116.771 94C116.398 94.6507 115.875 95.1627 115.203 95.536C114.542 95.9093 113.79 96.096 112.947 96.096ZM112.947 94.752C113.491 94.752 113.977 94.6293 114.403 94.384C114.841 94.128 115.182 93.776 115.427 93.328C115.673 92.8693 115.795 92.3467 115.795 91.76C115.795 91.1733 115.673 90.656 115.427 90.208C115.182 89.7493 114.841 89.3973 114.403 89.152C113.977 88.9067 113.491 88.784 112.947 88.784C112.403 88.784 111.913 88.9067 111.475 89.152C111.049 89.3973 110.707 89.7493 110.451 90.208C110.206 90.656 110.083 91.1733 110.083 91.76C110.083 92.3467 110.206 92.8693 110.451 93.328C110.707 93.776 111.049 94.128 111.475 94.384C111.913 94.6293 112.403 94.752 112.947 94.752ZM124.24 95.504C124.016 95.696 123.738 95.8453 123.408 95.952C123.077 96.048 122.736 96.096 122.384 96.096C121.53 96.096 120.869 95.8667 120.4 95.408C119.93 94.9493 119.696 94.2933 119.696 93.44V88.784H118.256V87.52H119.696V85.664H121.232V87.52H123.664V88.784H121.232V93.376C121.232 93.8347 121.344 94.1867 121.568 94.432C121.802 94.6773 122.133 94.8 122.56 94.8C123.029 94.8 123.429 94.6667 123.76 94.4L124.24 95.504ZM133.498 85.296C132.58 85.296 132.122 85.792 132.122 86.784V87.52H134.586V88.784H132.154V96H130.618V88.784H129.178V87.52H130.618V86.768C130.618 85.9253 130.863 85.2587 131.354 84.768C131.844 84.2773 132.532 84.032 133.418 84.032C133.759 84.032 134.079 84.0747 134.378 84.16C134.676 84.2453 134.932 84.368 135.146 84.528L134.682 85.696C134.33 85.4293 133.935 85.296 133.498 85.296ZM139.541 96.096C138.698 96.096 137.941 95.9093 137.269 95.536C136.597 95.1627 136.069 94.6507 135.685 94C135.312 93.3387 135.125 92.592 135.125 91.76C135.125 90.928 135.312 90.1867 135.685 89.536C136.069 88.8747 136.597 88.3627 137.269 88C137.941 87.6267 138.698 87.44 139.541 87.44C140.384 87.44 141.136 87.6267 141.797 88C142.469 88.3627 142.992 88.8747 143.365 89.536C143.749 90.1867 143.941 90.928 143.941 91.76C143.941 92.592 143.749 93.3387 143.365 94C142.992 94.6507 142.469 95.1627 141.797 95.536C141.136 95.9093 140.384 96.096 139.541 96.096ZM139.541 94.752C140.085 94.752 140.57 94.6293 140.997 94.384C141.434 94.128 141.776 93.776 142.021 93.328C142.266 92.8693 142.389 92.3467 142.389 91.76C142.389 91.1733 142.266 90.656 142.021 90.208C141.776 89.7493 141.434 89.3973 140.997 89.152C140.57 88.9067 140.085 88.784 139.541 88.784C138.997 88.784 138.506 88.9067 138.069 89.152C137.642 89.3973 137.301 89.7493 137.045 90.208C136.8 90.656 136.677 91.1733 136.677 91.76C136.677 92.3467 136.8 92.8693 137.045 93.328C137.301 93.776 137.642 94.128 138.069 94.384C138.506 94.6293 138.997 94.752 139.541 94.752ZM153.969 87.52V96H152.513V94.72C152.204 95.1573 151.793 95.4987 151.281 95.744C150.78 95.9787 150.231 96.096 149.633 96.096C148.503 96.096 147.612 95.7867 146.961 95.168C146.311 94.5387 145.985 93.616 145.985 92.4V87.52H147.521V92.224C147.521 93.0453 147.719 93.6693 148.113 94.096C148.508 94.512 149.073 94.72 149.809 94.72C150.62 94.72 151.26 94.4747 151.729 93.984C152.199 93.4933 152.433 92.8 152.433 91.904V87.52H153.969ZM161.422 87.44C162.499 87.44 163.352 87.7547 163.982 88.384C164.622 89.0027 164.942 89.9147 164.942 91.12V96H163.406V91.296C163.406 90.4747 163.208 89.856 162.814 89.44C162.419 89.024 161.854 88.816 161.118 88.816C160.286 88.816 159.63 89.0613 159.15 89.552C158.67 90.032 158.43 90.7253 158.43 91.632V96H156.894V87.52H158.366V88.8C158.675 88.3627 159.091 88.0267 159.614 87.792C160.147 87.5573 160.75 87.44 161.422 87.44ZM175.831 84.128V96H174.359V94.656C174.018 95.1253 173.586 95.4827 173.063 95.728C172.54 95.9733 171.964 96.096 171.335 96.096C170.514 96.096 169.778 95.9147 169.127 95.552C168.476 95.1893 167.964 94.6827 167.591 94.032C167.228 93.3707 167.047 92.6133 167.047 91.76C167.047 90.9067 167.228 90.1547 167.591 89.504C167.964 88.8533 168.476 88.3467 169.127 87.984C169.778 87.6213 170.514 87.44 171.335 87.44C171.943 87.44 172.503 87.5573 173.015 87.792C173.527 88.016 173.954 88.352 174.295 88.8V84.128H175.831ZM171.463 94.752C171.996 94.752 172.482 94.6293 172.919 94.384C173.356 94.128 173.698 93.776 173.943 93.328C174.188 92.8693 174.311 92.3467 174.311 91.76C174.311 91.1733 174.188 90.656 173.943 90.208C173.698 89.7493 173.356 89.3973 172.919 89.152C172.482 88.9067 171.996 88.784 171.463 88.784C170.919 88.784 170.428 88.9067 169.991 89.152C169.564 89.3973 169.223 89.7493 168.967 90.208C168.722 90.656 168.599 91.1733 168.599 91.76C168.599 92.3467 168.722 92.8693 168.967 93.328C169.223 93.776 169.564 94.128 169.991 94.384C170.428 94.6293 170.919 94.752 171.463 94.752ZM178.529 84.8H180.337L180.033 92.464H178.817L178.529 84.8ZM179.441 96.096C179.143 96.096 178.892 96 178.689 95.808C178.487 95.6053 178.385 95.36 178.385 95.072C178.385 94.784 178.487 94.544 178.689 94.352C178.892 94.1493 179.143 94.048 179.441 94.048C179.74 94.048 179.985 94.1493 180.177 94.352C180.369 94.544 180.465 94.784 180.465 95.072C180.465 95.36 180.364 95.6053 180.161 95.808C179.969 96 179.729 96.096 179.441 96.096Z" fill="black"/>
</svg>
